# xmcd
#
# Track frame offsets:
#	150
#	26285
#	51883
#	75845
#	101893
#	122438
#	136553
#	171035
#
# Disc length: 2631 seconds
#
# Revision: 0
# Processed by: cddbd v1.5.2PL0 Copyright (c) Steve Scherf et al.
# Submitted via: audiograbber 1.83.01
#
DISCID=510a4508
DTITLE=Lee Clayton - Another Night
DYEAR=1989
DGENRE=Countryrock
TTITLE0=I Ride Alone
TTITLE1=Draggin' Them Chains
TTITLE2=A Little Cocaine
TTITLE3=Like A Diamond
TTITLE4=Tequila Is Addictive
TTITLE5=Money
TTITLE6=Industry
TTITLE7=The Dream Goes On
EXTD=Live in Oslo 09/09/1988
EXTT0=
EXTT1=
EXTT2=
EXTT3=
EXTT4=
EXTT5=
EXTT6=
EXTT7=
PLAYORDER=
